<svg xmlns="http://www.w3.org/2000/svg" viewBox="0 0 96 96" role="img" aria-labelledby="title description">
  <title id="title">Biểu tượng EduFit</title>
  <desc id="description">Chữ e màu xanh kết hợp chữ F màu cam và hai chiếc lá giáo dục</desc>

  <path
    fill="#8DA8D8"
    d="M10 60.5C10 43.1 22.7 31 39.9 31c11.5 0 20.5 5.1 25.4 13.7l-12.1 7.1c-2.7-4.6-7.1-7.2-13.2-7.2-7.2 0-12.4 3.9-14.5 10.1h40.6c.3 1.8.5 3.7.5 5.8 0 3-.3 5.6-.8 8H25.6c2.3 6.1 7.5 9.8 14.7 9.8 6.4 0 11.4-2.2 15.5-6.8l10.5 8.4C60 87.1 51.5 91 40.1 91 22.4 91 10 78.4 10 60.5Z"
  />

  <path
    fill="#F4AD45"
    d="M58.2 48.8H88v13.9H73.8v8.1h12.8v13.6H73.8V91H58.2V48.8Z"
  />

  <path
    fill="#7898D0"
    d="M49.1 59.3c8.4-8.1 14.2-17.5 17.8-28.7l7.1 2.1C70.1 47 62.8 58.2 52.2 67.3l-3.1-8Z"
  />

  <path
    fill="#A7CE8C"
    d="M66.7 29.7C65.1 17.2 72.6 8 88.4 7.1c1.7 14.2-5.8 23-21.7 22.6Z"
  />
  <path
    fill="#A7CE8C"
    d="M62.3 35.2C49.1 35.8 41.8 29 42.2 15c14.5-.3 21.4 6.5 20.1 20.2Z"
  />

  <path
    fill="#FFFFFF"
    d="M48.1 21.6c3.4.3 6.2 1.4 8.4 3.3v6.4c-2.3-1.5-5.1-2.3-8.4-2.5v-7.2Zm12 3.3c-1 .6-1.8 1.3-2.6 2.1v6.3c.8-.7 1.7-1.3 2.6-1.8v-6.6Z"
  />
  <path
    fill="#FFFFFF"
    d="m78.2 13.4 1.5 3.1 3.4.5-2.5 2.4.6 3.4-3-1.6-3 1.6.6-3.4-2.5-2.4 3.4-.5 1.5-3.1Z"
  />
</svg>
